<svg id="visual" viewBox="0 0 1440 100" width="1440" height="100" xmlns="http://www.w3.org/2000/svg" xmlns:xlink="http://www.w3.org/1999/xlink" version="1.1"><path d="M0 64L40 67.8C80 71.7 160 79.3 240 80.5C320 81.7 400 76.3 480 76.7C560 77 640 83 720 83.2C800 83.3 880 77.7 960 75.8C1040 74 1120 76 1200 78.3C1280 80.7 1360 83.3 1400 84.7L1440 86L1440 0L1400 0C1360 0 1280 0 1200 0C1120 0 1040 0 960 0C880 0 800 0 720 0C640 0 560 0 480 0C400 0 320 0 240 0C160 0 80 0 40 0L0 0Z" fill="#ffffff"></path><path d="M0 56L40 56.7C80 57.3 160 58.7 240 60.7C320 62.7 400 65.3 480 59.7C560 54 640 40 720 36.3C800 32.7 880 39.3 960 39.2C1040 39 1120 32 1200 30C1280 28 1360 31 1400 32.5L1440 34L1440 0L1400 0C1360 0 1280 0 1200 0C1120 0 1040 0 960 0C880 0 800 0 720 0C640 0 560 0 480 0C400 0 320 0 240 0C160 0 80 0 40 0L0 0Z" fill="#c9f3c5"></path><path d="M0 47L40 42.7C80 38.3 160 29.7 240 29.5C320 29.3 400 37.7 480 40.5C560 43.3 640 40.7 720 37.5C800 34.3 880 30.7 960 29.7C1040 28.7 1120 30.3 1200 33C1280 35.7 1360 39.3 1400 41.2L1440 43L1440 0L1400 0C1360 0 1280 0 1200 0C1120 0 1040 0 960 0C880 0 800 0 720 0C640 0 560 0 480 0C400 0 320 0 240 0C160 0 80 0 40 0L0 0Z" fill="#8de58d"></path><path d="M0 26L40 23.8C80 21.7 160 17.3 240 17.8C320 18.3 400 23.7 480 25.2C560 26.7 640 24.3 720 20.8C800 17.3 880 12.7 960 13.2C1040 13.7 1120 19.3 1200 20.8C1280 22.3 1360 19.7 1400 18.3L1440 17L1440 0L1400 0C1360 0 1280 0 1200 0C1120 0 1040 0 960 0C880 0 800 0 720 0C640 0 560 0 480 0C400 0 320 0 240 0C160 0 80 0 40 0L0 0Z" fill="#38d552"></path></svg>