<?xml version="1.0" encoding="UTF-8"?> <svg xmlns="http://www.w3.org/2000/svg" id="Layer_1" data-name="Layer 1" width="727.14" height="268.08" viewBox="0 0 727.14 268.08"><defs><style>.cls-1{fill:#010101;}.cls-2{fill:#020202;}.cls-3{fill:#030303;}</style></defs><title>paycell-logo</title><path class="cls-1" d="M145.09,241c65.64,0,119.83,42.65,134.31,105.7C295.78,418,248.55,491.39,176.92,506.17c-23.57,4.87-46.73,3.39-69.73-3.29-3-.88-3.4-2-2.84-4.92q7-37,13.59-74.15c.56-3.19,1-3.82,4.24-2.27a51.6,51.6,0,0,0,58.82-9,52.35,52.35,0,0,0-37.28-90.32c-24.8.35-45.89,18.93-50.48,44.2-7,38.69-14.24,77.33-21.22,116-.6,3.31-1.17,3.67-3.9,1.71-28.47-20.54-47-47.8-53.9-82.2-14.77-73.77,30.47-142.28,104-158.38A122,122,0,0,1,145.09,241Z" transform="translate(-11.43 -240.96)"></path><path class="cls-2" d="M377.9,508.84c-39.83.35-67.21-31.24-61.77-71.92,3.39-25.34,17.67-42.89,41.86-50.7,24.56-7.92,47.37-3.67,66.44,14.85a52.91,52.91,0,0,1,11.06,16.47c1,2.19.63,3-1.62,3.8-9.62,3.34-19.24,6.7-28.72,10.39-2.74,1.07-3.3-.53-4.42-2-7-9.3-16.76-11.25-27.38-9.46-10.07,1.7-16.56,7.92-19.28,17.93-3.6,13.25,1.65,26.13,13,31.71,9.82,4.81,26.3,4.5,34.4-8.14,1.15-1.8,2.14-1.79,3.95-1.22,9.42,3,18.85,6,28.37,8.67,3.07.87,3.14,1.81,1.83,4.43C426.88,491.06,406.48,509.75,377.9,508.84Z" transform="translate(-11.43 -240.96)"></path><path class="cls-2" d="M322.71,303.12c0-18.36.06-36.71-.07-55.06,0-3.05.7-4,3.89-4,19.54.15,39.08-.05,58.61.1,23.72.19,42.05,18.73,42.24,42.42A64,64,0,0,1,426,302c-4.12,17.32-16.38,25.5-32.75,29-9.34,2-18.83,2.2-28.28,1.85-4.52-.16-5.39,1.34-5.18,5.45.35,6.79,0,13.61.15,20.42.07,2.6-.47,3.57-3.35,3.52-10.06-.2-20.13-.23-30.19,0-3.32.08-3.82-1.14-3.8-4.07C322.77,339.82,322.71,321.47,322.71,303.12Zm37.21-14.46c0,4.72,0,9.44,0,14.16,0,1.82.11,3.18,2.48,3.13,5-.13,10,.59,15-.57,7.89-1.84,11.9-7.07,12.19-16.13.29-8.84-3.55-14.72-11.12-17-5.49-1.64-11.14-.78-16.71-1-2.1-.08-1.81,1.46-1.81,2.76C359.91,278.92,359.92,283.79,359.92,288.66Z" transform="translate(-11.43 -240.96)"></path><path class="cls-2" d="M447,445.63c0-18.36.07-36.71-.06-55.07,0-2.87.69-3.72,3.64-3.7q41.31.17,82.62,0c2.54,0,3.67.35,3.53,3.3-.26,5.76-.27,11.55,0,17.31.16,3.15-1.11,3.54-3.79,3.52-15.1-.11-30.21,0-45.31-.12-2.87,0-3.81.7-3.66,3.64a135.08,135.08,0,0,1,0,14.65c-.18,3.1,1,3.58,3.77,3.56,14.51-.12,29,0,43.53-.14,3.27,0,4.42.74,4.24,4.16a153.13,153.13,0,0,0,0,16.87c.21,3.63-.74,4.76-4.52,4.7-14.36-.23-28.73,0-43.09-.17-3.06,0-4.14.71-3.94,3.89a105.56,105.56,0,0,1,0,13.31c-.2,3.2.54,4.24,4,4.19,15.25-.23,30.5,0,45.75-.2,3.83-.06,4.7,1.09,4.5,4.69a163.67,163.67,0,0,0,0,16.87c.16,3.24-1,3.88-4,3.87q-41.53-.16-83.06,0c-3.75,0-4.23-1.31-4.21-4.53C447,482.06,447,463.85,447,445.63Z" transform="translate(-11.43 -240.96)"></path><path class="cls-2" d="M551.32,362.11c-13.18,0-25.61,0-38,0-1.88,0-3.17-.39-3.61-2.36a1.62,1.62,0,0,0-.19-.4c-2.06-4.06-2.55-9.95-6.22-11.86a117.24,117.24,0,0,0-13.54-.54c-9.33,0-18.66.09-28-.06-2.45,0-3.59.65-4.52,3C455.61,354,455,362,451,362s-7.95.08-12.23.1c-7.48,0-15,0-23.12,0,6.15-11.5,12-22.41,17.82-33.3q22.41-41.79,44.85-83.56c.94-1.75,1.55-3.53,4.35-3.62,3-.09,3.75,1.72,4.8,3.65L549,357.6C549.73,358.86,550.34,360.16,551.32,362.11ZM481.82,290c-5.22,12.21-10,23.39-14.82,34.72h28.76C491.31,313.21,485.68,302.61,481.82,290Z" transform="translate(-11.43 -240.96)"></path><path class="cls-2" d="M593.31,295.55c6-15.48,11.49-29.77,17-44.08,2.59-6.76,2.56-6.78,9.78-6.78h31.49c.79,1.46-.3,2.34-.77,3.27q-18.21,36.46-36.51,72.87a17.5,17.5,0,0,0-2.08,8.44c.17,9.77-.08,19.55.14,29.31.08,3.2-.91,3.89-3.94,3.83q-15.32-.29-30.65,0c-3,.06-4-.57-4-3.8.24-8.87,0-17.76.14-26.64a13.39,13.39,0,0,0-1.94-7.09c-14.58-25.54-29.05-51.13-43.7-76.63-1.93-3.35-1.86-4.27,2.35-4.19q17.76.33,35.53,0c3.24-.06,4.56,1.14,5.78,3.91C578.78,263.48,585.82,278.93,593.31,295.55Z" transform="translate(-11.43 -240.96)"></path><path class="cls-1" d="M555.28,445.51c0-18.07.13-36.14-.11-54.21,0-3.88,1.15-4.55,4.68-4.46q14.21.38,28.43,0c3.4-.09,4.42.72,4.4,4.29-.17,26.37,0,52.73-.2,79.09,0,4.41.76,6,5.6,5.84,12.43-.4,24.88-.05,37.32-.2,2.73,0,3.52.66,3.45,3.43-.2,7.55-.14,15.1,0,22.65,0,2.08-.48,2.8-2.69,2.8q-39.1-.12-78.2,0c-3.22,0-2.66-1.85-2.66-3.71Z" transform="translate(-11.43 -240.96)"></path><path class="cls-2" d="M655,446.13c0-18.5,0-37-.06-55.5,0-2.77.52-3.85,3.6-3.78q15.09.3,30.18,0c2.91-.06,3.66.74,3.65,3.64-.11,26.79.06,53.58-.19,80.36,0,4.47,1.3,5.27,5.4,5.18,12.43-.29,24.87,0,37.29-.17,2.91,0,3.77.74,3.68,3.66-.2,7.39-.15,14.8,0,22.2,0,2.26-.52,3-2.93,3q-38.62-.12-77.25,0c-3.39,0-3.39-1.59-3.38-4Q655.05,473.42,655,446.13Z" transform="translate(-11.43 -240.96)"></path><path class="cls-3" d="M161.79,374.68a16.61,16.61,0,0,1-16.66,17,16.86,16.86,0,0,1-17.24-16.54,17.11,17.11,0,0,1,17-17.37A16.88,16.88,0,0,1,161.79,374.68Z" transform="translate(-11.43 -240.96)"></path></svg> 